<svg width="116" height="33" viewBox="0 0 116 33" fill="none" xmlns="http://www.w3.org/2000/svg"><g clip-path="url(#a)"><path d="M36.87 29.13V17.65h-1.45v4.94h-4.95v-4.94h-1.45v11.48h1.45v-5.2h4.97v5.2h1.43Zm8.6-5.85c0-1.8-.77-2.73-3.13-2.73-.88 0-1.92.14-2.68.38l.14 1.16c.65-.13 1.68-.27 2.45-.27 1.33 0 1.77.37 1.77 1.42v1.3h-2.16c-1.66 0-2.5.64-2.5 2.37 0 1.48.65 2.41 2.17 2.41.99 0 1.93-.27 2.66-.79l.1.64h1.2l-.02-5.9Zm-1.43 4.1c-.64.42-1.4.7-2.12.7-1 0-1.16-.36-1.16-1.2 0-.86.33-1.13 1.2-1.13h2.08v1.64Zm10.26 1.75v-6.44c0-1.29-.46-2.14-1.78-2.14-.94 0-2.25.42-3.16.9v-4.33l-1.4.2v11.83h1.4v-6.33a7.93 7.93 0 0 1 2.74-.86c.52 0 .79.21.79.77v6.42h1.4v-.02Zm8.96 0v-6.44c0-1.29-.46-2.14-1.77-2.14-.96 0-2.4.44-3.3.91l-.13-.71H56.9v8.4h1.4V22.8a7.84 7.84 0 0 1 2.75-.84c.52 0 .79.21.79.77v6.42h1.42v-.02Zm3.61-2.93v-.69h4.88v-1.76c0-1.74-.66-3.18-3.09-3.18-2.43 0-3.2 1.4-3.2 3.14v2.51c0 1.9.83 3.08 3.24 3.08 1.02 0 2.12-.17 2.9-.47l-.18-1.17c-.9.24-1.77.4-2.58.4-1.6 0-1.97-.53-1.97-1.86Zm0-2.6c0-1.19.46-1.82 1.8-1.82 1.32 0 1.7.67 1.7 1.81v.7h-3.5v-.7Zm18.41 5.53v-6.44c0-1.29-.46-2.14-1.77-2.14-1.02 0-2.41.42-3.4.91-.23-.57-.7-.9-1.56-.9-.96 0-2.39.43-3.3.9l-.13-.71h-1.15v8.4h1.4V22.8a7.84 7.84 0 0 1 2.74-.84c.52 0 .8.21.8.77v6.42h1.4V22.8a7.4 7.4 0 0 1 2.74-.84c.52 0 .79.21.79.77v6.42h1.44v-.02Zm2.53-8.38v6.44c0 1.28.46 2.13 1.77 2.13.97 0 2.4-.43 3.3-.9l.14.7h1.15v-8.39h-1.4v6.34c-.9.46-2.15.85-2.74.85-.52 0-.8-.22-.8-.77v-6.42l-1.42.02Zm1.14-1.28h1.3v-1.45h-1.3v1.45Zm2.9 0h1.32v-1.45h-1.31v1.45Zm11.37 9.66v-6.44c0-1.29-.47-2.14-1.78-2.14-.94 0-2.25.42-3.16.9v-4.33l-1.4.2v11.83h1.4v-6.33a7.93 7.93 0 0 1 2.74-.86c.52 0 .79.21.79.77v6.42h1.4v-.02Zm4.03 0V17.1l-1.41.2v11.83h1.4Zm3.66-2.93v-.69h4.88v-1.76c0-1.74-.66-3.18-3.09-3.18-2.43 0-3.2 1.4-3.2 3.14v2.51c0 1.9.83 3.08 3.24 3.08 1.02 0 2.12-.17 2.9-.47l-.18-1.17c-.9.24-1.77.4-2.58.4-1.6 0-1.97-.53-1.97-1.86Zm0-2.6c0-1.19.46-1.82 1.8-1.82 1.32 0 1.7.67 1.7 1.81v.7h-3.5v-.7Z" fill="#6F7072"/><path d="M22.73 13.2a5.46 5.46 0 0 0-1.87-3.79 4.42 4.42 0 0 0-3.39-1.04c-1.47.15-2.66 1.3-3.41 2.23a11 11 0 0 0-1.74 2.96 4.6 4.6 0 0 1-1.46-2.43c-.2-.83-.4-2.47-.56-3.65-.12-.8-.18-1.43-.23-1.64-.16-.73-.64-1.98-.95-2.63.68-.14 1.2-.32 1.7-.81.5-.51 1.3-1.3 1.33-1.3l.48-.48-.67-.06A85.5 85.5 0 0 0 7.8.31c-.4.02-.9.23-1.31.63-.33.3-.75.8-1.06 1.64l-3.1.61v.61l.23.06c.86.2 1.96.67 2.62 1.17l-.04.02c-.56.37-1.31.89-1.95 1.48-.8.75-1.2 1.42-1.14 2.01.04.42.22.73.5.95.24.16.53.24.85.24-.38.69-.6 1.22-.75 1.74-.2.7-.27 1.42-.17 2.3.11 1.37.79 2.73 1.56 3.92h-4v9.46a5.37 5.37 0 0 0 1.9 4.1 6 6 0 0 0 3.74 1.4 6 6 0 0 0 3.72-1.4 5.17 5.17 0 0 0 1.9-3.84c.09-1.27.51-3.14 1.17-4.6.73-1.66 1.71-2.53 2.97-2.65a3.73 3.73 0 0 1 3.23 1.28c.68.73 1 1.56 1.05 1.74v-.02l.23.77.33-.67c.52-1.1 1.25-2.85 1.79-4.88.6-1.94.79-3.7.65-5.18ZM4.51 18.26l.14.18c.42.57.87 1.07 1.23 1.46l.83.91a23.88 23.88 0 0 1 2.85 3.38 10.27 10.27 0 0 1 1.22 2.9l.04.3a4.59 4.59 0 0 1-1.7 3.4 5.41 5.41 0 0 1-3.35 1.26 5.26 5.26 0 0 1-3.36-1.26 4.65 4.65 0 0 1-1.7-3.64V18.3l3.8-.04Zm1-12.74.14-.1c.1.14.15.26.15.4.04.47-.38.98-.9 1.66-.35.43-.73.94-1.12 1.54-.37.1-.67.06-.89-.1a.72.72 0 0 1-.25-.5c-.04-.4.3-.9.95-1.52.63-.51 1.39-1 1.93-1.38ZM21.6 18.24a23.95 23.95 0 0 1-1.49 4.13c-.2-.4-.48-.85-.89-1.28a4.4 4.4 0 0 0-3.77-1.52 3.7 3.7 0 0 0-2.13.96c-.5.48-.94 1.17-1.33 2.02-.44 1.03-.75 2.2-.98 3.28a12.9 12.9 0 0 0-.94-1.96 24.29 24.29 0 0 0-2.93-3.48l-.83-.9a16.55 16.55 0 0 1-2.18-2.9 7.37 7.37 0 0 1-1.02-2.9 5.65 5.65 0 0 1 .15-2.09c.15-.59.44-1.2.96-2.09.37-.65.77-1.16 1.16-1.62C6 7.12 6.46 6.51 6.4 5.8c-.06-.59-.54-1.14-1.48-1.65-.4-.22-.87-.42-1.3-.57l2.09-.42.17-.04.06-.16C6.36 1.55 7.31.92 7.83.9c.37-.02 2.12.12 3.4.2a35 35 0 0 0-.86.85c-.4.41-.86.53-1.54.69l-.65.15.25.38c.13.2.83 1.86 1.04 2.79.06.2.13.84.21 1.58.15 1.26.37 2.86.58 3.73.29 1.24.9 2.21 1.97 3.02l.34.26.06-.22c.29-.97 1.08-2.39 1.85-3.34.68-.85 1.78-1.87 3.03-2.03 1.02-.14 2.1.22 2.95.93.94.79 1.54 2 1.66 3.37.15 1.4-.04 3.09-.52 4.98ZM7.87 3.64a.86.86 0 0 0-.95-.79.87.87 0 0 0-.77.97c.04.48.46.85.95.8a.9.9 0 0 0 .77-.98Zm-.6.06c.02.14-.1.28-.23.3-.14.02-.27-.1-.29-.24-.02-.14.1-.27.23-.3.16-.03.27.07.29.24ZM5.01 28.26v.13c0 .2-.02.3-.38.3-.17 0-.4-.02-.6-.08l-.06.42c.18.06.4.1.68.1.7 0 .85-.26.85-.7v-.23c0-.36-.14-.6-.6-.61l-.35-.02v-.66h.9v-.41h-1.4v1.46c.2 0 .35 0 .62.02.3.02.34.08.34.28Zm-2.87.8h1.5v-.4h-.52V26.5H2.7l-.64.2.12.41.48-.14v1.68h-.5v.42h-.02Zm3.74-.78v.15c0 .46.21.68.83.68s.83-.18.83-.68v-.15c0-.22-.08-.38-.37-.52.25-.14.31-.3.31-.5v-.17c0-.4-.2-.63-.75-.63-.56 0-.75.24-.75.63v.18c0 .2.08.35.3.5-.32.13-.4.29-.4.5Zm1.14-1.01c0 .14-.04.2-.3.32-.28-.12-.32-.16-.32-.32v-.16c0-.16.06-.24.31-.24s.3.1.3.24v.16Zm-.68 1.05c0-.16.04-.24.37-.38.33.14.37.2.37.38v.11c0 .2-.1.26-.37.26s-.37-.08-.37-.26v-.11ZM8.7 26.5l-.9 1.54v.43h1.09v.58h.46v-.58h.31v-.41h-.3v-1.58H8.7v.02Zm-.43 1.58.62-1.13v1.13h-.62Z" fill="#E1001A"/></g><defs><clipPath id="a"><path fill="#fff" transform="translate(.06 .15)" d="M0 0h115.88v32.59H0z"/></clipPath></defs></svg>