<svg width="140" height="24" viewBox="0 0 140 24" fill="none" xmlns="http://www.w3.org/2000/svg"><circle cx="8.5" cy="12" r="8" stroke="#333"/><path d="M25.84 18.58c.75 0 1.36-.12 1.84-.36.5-.25.74-.67.74-1.26 0-.28-.05-.52-.14-.72-.08-.2-.22-.38-.42-.54-.2-.16-.47-.31-.8-.46a38.4 38.4 0 0 0-1.2-.52 30 30 0 0 1-1.1-.48 5.16 5.16 0 0 1-.92-.58 2.4 2.4 0 0 1-.88-1.92c0-.84.31-1.52.94-2.04a4.04 4.04 0 0 1 2.62-.78 6.97 6.97 0 0 1 2.72.5l-.3 1.16a5.22 5.22 0 0 0-3.32-.42c-.25.05-.48.15-.68.28-.2.12-.36.28-.48.48-.12.19-.18.42-.18.7a1.51 1.51 0 0 0 .62 1.26c.21.15.47.29.76.42l1.04.44c.4.16.78.33 1.14.5.37.16.7.36.98.6a2.55 2.55 0 0 1 .94 2.06 2.4 2.4 0 0 1-1.06 2.12c-.7.48-1.65.72-2.86.72a6.92 6.92 0 0 1-3.04-.58l.34-1.18a3.01 3.01 0 0 0 .8.34 7.29 7.29 0 0 0 1.9.26Zm7.73.92h-1.3V9.16h1.3V19.5Zm.3-13.46a1 1 0 0 1-.28.74.96.96 0 0 1-.68.26.96.96 0 0 1-.68-.26 1 1 0 0 1-.28-.74c0-.3.1-.55.28-.72a.93.93 0 0 1 .68-.28c.27 0 .5.1.68.28.2.17.28.41.28.72Zm3.15 3.48c.39-.1.89-.23 1.5-.36.63-.13 1.43-.2 2.42-.2 1.3 0 2.25.38 2.84 1.14a5.26 5.26 0 0 1 1.12-.66 5.7 5.7 0 0 1 2.34-.48c.79 0 1.42.12 1.9.36.5.23.87.55 1.14.98.27.41.45.91.54 1.5.1.59.14 1.23.14 1.92v5.78h-1.3v-5.36c0-.68-.03-1.27-.1-1.76a3.1 3.1 0 0 0-.36-1.24 1.64 1.64 0 0 0-.76-.74 2.82 2.82 0 0 0-1.3-.26 4.71 4.71 0 0 0-2.86.94 8.82 8.82 0 0 1 .36 2.54v5.88h-1.3v-5.36c0-.68-.03-1.27-.1-1.76a3.1 3.1 0 0 0-.36-1.24 1.72 1.72 0 0 0-.8-.74 2.92 2.92 0 0 0-1.34-.26c-.63 0-1.16.03-1.6.1-.43.07-.7.13-.82.18v9.08h-1.3V9.52Zm18.57 8.12a4.79 4.79 0 0 0 2.74.92c.64 0 1.17-.1 1.6-.32.44-.23.79-.53 1.06-.9.26-.39.46-.83.58-1.34.12-.52.18-1.07.18-1.64 0-1.36-.34-2.4-1.02-3.12a3.5 3.5 0 0 0-2.7-1.1 9.83 9.83 0 0 0-2.44.28v7.22Zm0 5.56h-1.3V9.52a11.7 11.7 0 0 1 3.76-.56c.76 0 1.44.13 2.06.38.62.24 1.16.6 1.6 1.06.45.47.8 1.03 1.04 1.7a7.12 7.12 0 0 1 .06 4.44 4.22 4.22 0 0 1-2.38 2.8c-.58.27-1.24.4-1.98.4a4.88 4.88 0 0 1-2.86-.84v4.3Zm12.98-3.52a4.23 4.23 0 0 1-1.16-.18c-.32-.1-.6-.24-.82-.44a2.2 2.2 0 0 1-.5-.8c-.11-.33-.16-.75-.16-1.24V4.22l1.3-.24v13c0 .32.02.58.08.78.06.19.16.34.28.46.12.1.27.19.46.24.2.05.43.1.7.14l-.18 1.08Zm1.85-5.36c0-.9.13-1.7.38-2.36.27-.68.61-1.25 1.02-1.7a4.35 4.35 0 0 1 3.12-1.34c1.27 0 2.28.41 3.02 1.24.76.83 1.14 2.1 1.14 3.82 0 .1 0 .21-.02.32 0 .1 0 .2-.02.3H71.8c.04 1.27.36 2.24.94 2.92.6.68 1.52 1.02 2.8 1.02a5.66 5.66 0 0 0 2.58-.54l.24 1.12a6.51 6.51 0 0 1-2.86.6c-.9 0-1.68-.13-2.32-.4a4.15 4.15 0 0 1-2.48-2.82 8.07 8.07 0 0 1-.28-2.18Zm7.34-.82a4.1 4.1 0 0 0-.76-2.52c-.48-.6-1.16-.9-2.04-.9a2.78 2.78 0 0 0-2.22 1.04c-.26.3-.48.67-.64 1.08a4.7 4.7 0 0 0-.26 1.3h5.92Z" fill="#333"/><rect x="86.5" y="4" width="31" height="16" rx="8" stroke="#333"/><circle cx="131.5" cy="12" r="8" stroke="#333"/></svg>