<?xml version="1.0" encoding="UTF-8"?>
<svg xmlns="http://www.w3.org/2000/svg" xmlns:xlink="http://www.w3.org/1999/xlink" width="116px" height="24px" viewBox="0 0 114 24" version="1.1">
<g id="surface1">
<path style=" stroke:none;fill-rule:nonzero;fill:rgb(0%,41.176471%,38.823529%);fill-opacity:1;" d="M 7.785156 4.351562 C 6.628906 5.695312 4.953125 6.460938 3.191406 6.460938 L 0 6.460938 L 0 0.328125 L 11.253906 0.328125 Z M 22.511719 0.328125 L 11.253906 0.328125 L 11.253906 6.460938 L 14.445312 6.460938 C 16.207031 6.460938 17.882812 5.695312 19.039062 4.351562 Z M 30.296875 2.4375 C 29.140625 1.097656 27.464844 0.328125 25.703125 0.328125 L 22.511719 0.328125 L 22.511719 6.460938 L 33.765625 6.460938 Z M 11.253906 7.78125 L 0 7.78125 L 0 13.914062 L 3.191406 13.914062 C 4.953125 13.914062 6.628906 13.148438 7.785156 11.804688 Z M 22.507812 7.78125 L 11.253906 7.78125 L 11.253906 13.914062 L 14.445312 13.914062 C 16.207031 13.914062 17.882812 13.148438 19.039062 11.804688 Z M 33.765625 7.78125 L 22.507812 7.78125 L 22.507812 13.914062 L 25.699219 13.914062 C 27.464844 13.914062 29.136719 13.148438 30.292969 11.804688 Z M 11.253906 15.230469 L 0 15.230469 L 0 21.367188 L 3.191406 21.367188 C 4.953125 21.367188 6.628906 20.597656 7.785156 19.257812 Z M 22.507812 15.230469 L 11.253906 15.230469 L 11.253906 21.367188 L 14.445312 21.367188 C 16.207031 21.367188 17.882812 20.597656 19.039062 19.257812 Z M 22.507812 15.230469 "/>
<path style=" stroke:none;fill-rule:nonzero;fill:rgb(8.235294%,9.803922%,11.764706%);fill-opacity:1;" d="M 86.921875 0.355469 L 88.730469 0.355469 L 88.730469 2.078125 L 86.921875 2.078125 Z M 86.921875 0.355469 "/>
<path style=" stroke:none;fill-rule:nonzero;fill:rgb(8.235294%,9.803922%,11.764706%);fill-opacity:1;" d="M 53.515625 16.460938 C 53.515625 15.105469 52.554688 14.234375 50.585938 14.234375 C 48.617188 14.234375 47.554688 15.375 47.5 16.707031 L 49.179688 16.707031 C 49.179688 15.957031 49.5625 15.476562 50.566406 15.476562 C 51.476562 15.476562 51.863281 15.742188 51.835938 16.351562 C 51.808594 16.988281 50.921875 17.0625 49.410156 17.328125 C 47.769531 17.613281 47.214844 18.34375 47.214844 19.441406 C 47.214844 20.671875 48.132812 21.4375 49.503906 21.4375 C 50.878906 21.4375 51.570312 20.832031 51.871094 19.933594 L 51.953125 19.933594 L 51.953125 20.175781 C 51.953125 20.808594 52.523438 21.300781 53.148438 21.300781 L 54.234375 21.300781 L 54.234375 19.949219 L 53.515625 19.949219 L 53.515625 16.457031 Z M 51.835938 18.039062 C 51.835938 19.328125 51.191406 20.203125 49.992188 20.203125 C 49.390625 20.203125 48.960938 19.894531 48.960938 19.300781 C 48.960938 18.707031 49.273438 18.457031 50.03125 18.265625 L 50.75 18.089844 C 51.15625 17.996094 51.496094 17.941406 51.835938 17.671875 Z M 51.835938 18.039062 "/>
<path style=" stroke:none;fill-rule:nonzero;fill:rgb(8.235294%,9.803922%,11.764706%);fill-opacity:1;" d="M 39.582031 0.355469 L 41.46875 0.355469 L 41.46875 9.738281 L 39.582031 9.738281 Z M 39.582031 0.355469 "/>
<path style=" stroke:none;fill-rule:nonzero;fill:rgb(8.235294%,9.803922%,11.764706%);fill-opacity:1;" d="M 58.160156 9.875 C 59.988281 9.875 61.234375 8.949219 61.511719 7.363281 L 59.75 7.363281 C 59.546875 8.066406 58.972656 8.496094 58.160156 8.496094 C 57.230469 8.496094 56.636719 7.8125 56.53125 6.636719 L 61.535156 6.636719 C 61.542969 6.519531 61.550781 6.394531 61.550781 6.273438 C 61.550781 4.742188 60.9375 3.433594 59.582031 2.914062 C 59.53125 2.894531 58.976562 2.671875 58.167969 2.671875 C 56.027344 2.671875 54.769531 3.996094 54.769531 6.273438 C 54.769531 8.550781 56.027344 9.875 58.167969 9.875 Z M 58.160156 4.035156 C 59.078125 4.035156 59.582031 4.679688 59.746094 5.570312 L 56.574219 5.570312 C 56.738281 4.679688 57.242188 4.035156 58.160156 4.035156 Z M 58.160156 4.035156 "/>
<path style=" stroke:none;fill-rule:nonzero;fill:rgb(8.235294%,9.803922%,11.764706%);fill-opacity:1;" d="M 110.839844 4.894531 C 110.839844 3.539062 109.878906 2.667969 107.910156 2.667969 C 105.945312 2.667969 104.878906 3.808594 104.828125 5.140625 L 106.503906 5.140625 C 106.503906 4.390625 106.890625 3.910156 107.894531 3.910156 C 108.804688 3.910156 109.191406 4.175781 109.164062 4.785156 C 109.132812 5.417969 108.25 5.496094 106.738281 5.761719 C 105.097656 6.046875 104.542969 6.777344 104.542969 7.875 C 104.542969 9.105469 105.460938 9.871094 106.832031 9.871094 C 108.203125 9.871094 108.898438 9.265625 109.199219 8.367188 L 109.277344 8.367188 L 109.277344 8.609375 C 109.277344 9.242188 109.847656 9.734375 110.476562 9.734375 L 111.5625 9.734375 L 111.5625 8.382812 L 110.839844 8.382812 L 110.839844 4.890625 Z M 109.164062 6.472656 C 109.164062 7.761719 108.519531 8.636719 107.316406 8.636719 C 106.714844 8.636719 106.285156 8.328125 106.285156 7.734375 C 106.285156 7.140625 106.601562 6.886719 107.359375 6.699219 L 108.074219 6.523438 C 108.480469 6.429688 108.824219 6.375 109.164062 6.105469 Z M 109.164062 6.472656 "/>
<path style=" stroke:none;fill-rule:nonzero;fill:rgb(8.235294%,9.803922%,11.764706%);fill-opacity:1;" d="M 44.628906 5.855469 C 44.628906 5.3125 44.738281 4.882812 45.046875 4.574219 C 45.359375 4.265625 45.738281 4.109375 46.1875 4.109375 C 47.089844 4.109375 47.492188 4.550781 47.492188 5.429688 L 47.492188 9.742188 L 49.300781 9.742188 L 49.300781 5.144531 C 49.300781 4.34375 49.074219 3.730469 48.625 3.296875 C 48.1875 2.875 47.59375 2.667969 46.847656 2.667969 C 45.828125 2.667969 44.835938 3.308594 44.632812 4.410156 L 44.550781 4.410156 L 44.503906 2.804688 L 42.824219 2.804688 L 42.824219 9.734375 L 44.632812 9.734375 L 44.632812 5.851562 Z M 44.628906 5.855469 "/>
<path style=" stroke:none;fill-rule:nonzero;fill:rgb(8.235294%,9.803922%,11.764706%);fill-opacity:1;" d="M 43.34375 11.929688 L 39.578125 11.929688 L 39.578125 21.316406 L 41.46875 21.316406 L 41.46875 18.335938 L 43.332031 18.335938 C 45.683594 18.335938 47.066406 17.148438 47.066406 15.132812 C 47.066406 13.113281 45.683594 11.929688 43.34375 11.929688 Z M 43.425781 16.859375 L 41.46875 16.859375 L 41.46875 13.40625 L 43.425781 13.40625 C 44.496094 13.40625 45.109375 14.058594 45.109375 15.132812 C 45.109375 16.207031 44.476562 16.859375 43.425781 16.859375 Z M 43.425781 16.859375 "/>
<path style=" stroke:none;fill-rule:nonzero;fill:rgb(8.235294%,9.803922%,11.764706%);fill-opacity:1;" d="M 112.191406 0.355469 L 114 0.355469 L 114 9.738281 L 112.191406 9.738281 Z M 112.191406 0.355469 "/>
<path style=" stroke:none;fill-rule:nonzero;fill:rgb(8.235294%,9.803922%,11.764706%);fill-opacity:1;" d="M 52.503906 0.0625 L 52.363281 0.0625 L 51.144531 1.480469 C 50.859375 1.8125 50.710938 2.238281 50.710938 2.675781 L 50.710938 2.808594 L 49.722656 2.808594 L 49.722656 4.0625 L 50.71875 4.0625 L 50.71875 7.550781 C 50.71875 8.957031 51.570312 9.875 53.035156 9.875 C 53.554688 9.875 54.117188 9.75 54.527344 9.554688 L 54.527344 8.203125 C 54.28125 8.339844 53.9375 8.425781 53.609375 8.425781 C 52.925781 8.425781 52.507812 8.050781 52.507812 7.402344 L 52.507812 4.0625 L 54.527344 4.0625 L 54.527344 2.808594 L 52.503906 2.808594 Z M 52.503906 0.0625 "/>
<path style=" stroke:none;fill-rule:nonzero;fill:rgb(8.235294%,9.803922%,11.764706%);fill-opacity:1;" d="M 72.605469 14.808594 L 71.835938 15.703125 L 71.757812 15.703125 L 71.714844 14.386719 L 70.078125 14.386719 L 70.078125 21.316406 L 71.882812 21.316406 L 71.839844 15.882812 L 74.476562 15.882812 L 74.476562 14.25 L 73.832031 14.25 C 73.359375 14.25 72.914062 14.453125 72.609375 14.808594 Z M 72.605469 14.808594 "/>
<path style=" stroke:none;fill-rule:nonzero;fill:rgb(8.235294%,9.803922%,11.764706%);fill-opacity:1;" d="M 80.789062 4.894531 C 80.789062 3.539062 79.828125 2.667969 77.859375 2.667969 C 75.890625 2.667969 74.828125 3.808594 74.777344 5.140625 L 76.453125 5.140625 C 76.453125 4.390625 76.839844 3.910156 77.84375 3.910156 C 78.753906 3.910156 79.140625 4.175781 79.109375 4.785156 C 79.082031 5.417969 78.199219 5.496094 76.6875 5.761719 C 75.042969 6.046875 74.492188 6.777344 74.492188 7.875 C 74.492188 9.105469 75.410156 9.871094 76.78125 9.871094 C 78.152344 9.871094 78.847656 9.265625 79.148438 8.367188 L 79.226562 8.367188 L 79.226562 8.609375 C 79.226562 9.242188 79.796875 9.734375 80.425781 9.734375 L 81.511719 9.734375 L 81.511719 8.382812 L 80.789062 8.382812 L 80.789062 4.890625 Z M 79.109375 6.472656 C 79.109375 7.761719 78.46875 8.636719 77.265625 8.636719 C 76.664062 8.636719 76.234375 8.328125 76.234375 7.734375 C 76.234375 7.140625 76.550781 6.886719 77.304688 6.699219 L 78.023438 6.523438 C 78.429688 6.429688 78.769531 6.375 79.109375 6.105469 Z M 79.109375 6.472656 "/>
<path style=" stroke:none;fill-rule:nonzero;fill:rgb(8.235294%,9.803922%,11.764706%);fill-opacity:1;" d="M 93.054688 2.667969 C 90.808594 2.667969 89.464844 4.007812 89.464844 6.269531 C 89.464844 8.535156 90.808594 9.875 93.054688 9.875 C 95.300781 9.875 96.628906 8.535156 96.628906 6.269531 C 96.628906 4.007812 95.300781 2.667969 93.054688 2.667969 Z M 93.054688 8.425781 C 91.960938 8.425781 91.316406 7.625 91.316406 6.273438 C 91.316406 4.921875 91.960938 4.105469 93.054688 4.105469 C 94.148438 4.105469 94.792969 4.917969 94.792969 6.273438 C 94.792969 7.628906 94.148438 8.425781 93.054688 8.425781 Z M 93.054688 8.425781 "/>
<path style=" stroke:none;fill-rule:nonzero;fill:rgb(8.235294%,9.803922%,11.764706%);fill-opacity:1;" d="M 84.039062 0.0625 L 83.898438 0.0625 L 82.679688 1.480469 C 82.394531 1.8125 82.246094 2.238281 82.246094 2.675781 L 82.246094 2.808594 L 81.257812 2.808594 L 81.257812 4.0625 L 82.25 4.0625 L 82.25 7.550781 C 82.25 8.957031 83.105469 9.875 84.570312 9.875 C 85.089844 9.875 85.652344 9.75 86.0625 9.554688 L 86.0625 8.203125 C 85.816406 8.339844 85.472656 8.425781 85.144531 8.425781 C 84.460938 8.425781 84.039062 8.050781 84.039062 7.402344 L 84.039062 4.0625 L 86.0625 4.0625 L 86.0625 2.808594 L 84.039062 2.808594 Z M 84.039062 0.0625 "/>
<path style=" stroke:none;fill-rule:nonzero;fill:rgb(8.235294%,9.803922%,11.764706%);fill-opacity:1;" d="M 86.921875 2.808594 L 88.730469 2.808594 L 88.730469 9.738281 L 86.921875 9.738281 Z M 86.921875 2.808594 "/>
<path style=" stroke:none;fill-rule:nonzero;fill:rgb(8.235294%,9.803922%,11.764706%);fill-opacity:1;" d="M 101.402344 2.667969 C 100.382812 2.667969 99.390625 3.308594 99.183594 4.410156 L 99.105469 4.410156 L 99.058594 2.804688 L 97.378906 2.804688 L 97.378906 9.734375 L 99.183594 9.734375 L 99.183594 5.851562 C 99.183594 5.308594 99.292969 4.878906 99.605469 4.570312 C 99.917969 4.261719 100.296875 4.109375 100.742188 4.109375 C 101.644531 4.109375 102.046875 4.546875 102.046875 5.425781 L 102.046875 9.738281 L 103.855469 9.738281 L 103.855469 5.144531 C 103.855469 4.34375 103.632812 3.730469 103.179688 3.296875 C 102.746094 2.875 102.152344 2.667969 101.40625 2.667969 Z M 101.402344 2.667969 "/>
<path style=" stroke:none;fill-rule:nonzero;fill:rgb(8.235294%,9.803922%,11.764706%);fill-opacity:1;" d="M 64.039062 4.300781 L 66.675781 4.300781 L 66.675781 2.667969 L 66.03125 2.667969 C 65.5625 2.667969 65.113281 2.875 64.808594 3.230469 L 64.039062 4.125 L 63.957031 4.125 L 63.917969 2.808594 L 62.28125 2.808594 L 62.28125 9.738281 L 64.085938 9.738281 Z M 64.039062 4.300781 "/>
<path style=" stroke:none;fill-rule:nonzero;fill:rgb(8.235294%,9.803922%,11.764706%);fill-opacity:1;" d="M 58.816406 14.214844 C 57.832031 14.214844 57.070312 14.757812 56.738281 15.558594 L 56.660156 15.558594 L 56.621094 14.375 L 54.929688 14.375 L 54.929688 23.9375 L 56.734375 23.9375 L 56.734375 20.058594 L 56.773438 20.058594 C 57.125 20.910156 57.929688 21.46875 58.816406 21.46875 C 59.777344 21.46875 60.542969 21.132812 61.113281 20.472656 C 61.675781 19.808594 61.957031 18.929688 61.957031 17.839844 C 61.957031 16.75 61.675781 15.859375 61.113281 15.191406 C 60.542969 14.539062 59.777344 14.210938 58.816406 14.210938 Z M 59.664062 19.464844 C 59.351562 19.867188 58.921875 20.070312 58.382812 20.070312 C 57.84375 20.070312 57.410156 19.878906 57.113281 19.492188 C 56.800781 19.117188 56.644531 18.566406 56.644531 17.839844 C 56.644531 17.113281 56.796875 16.574219 57.101562 16.1875 C 57.40625 15.800781 57.832031 15.609375 58.382812 15.609375 C 58.933594 15.609375 59.371094 15.796875 59.671875 16.167969 C 59.972656 16.542969 60.121094 17.078125 60.121094 17.789062 C 60.121094 18.496094 59.96875 19.074219 59.664062 19.464844 Z M 59.664062 19.464844 "/>
<path style=" stroke:none;fill-rule:nonzero;fill:rgb(8.235294%,9.803922%,11.764706%);fill-opacity:1;" d="M 67.34375 14.492188 C 67.292969 14.472656 66.738281 14.25 65.925781 14.25 C 63.789062 14.25 62.53125 15.574219 62.53125 17.851562 C 62.53125 20.128906 63.789062 21.453125 65.925781 21.453125 C 67.753906 21.453125 69 20.523438 69.277344 18.941406 L 67.515625 18.941406 C 67.3125 19.644531 66.738281 20.074219 65.925781 20.074219 C 64.996094 20.074219 64.40625 19.390625 64.296875 18.214844 L 69.300781 18.214844 C 69.308594 18.097656 69.316406 17.972656 69.316406 17.851562 C 69.316406 16.320312 68.703125 15.011719 67.347656 14.492188 Z M 64.355469 17.148438 C 64.519531 16.257812 65.023438 15.613281 65.941406 15.613281 C 66.859375 15.613281 67.363281 16.257812 67.527344 17.148438 Z M 64.355469 17.148438 "/>
<path style=" stroke:none;fill-rule:nonzero;fill:rgb(8.235294%,9.803922%,11.764706%);fill-opacity:1;" d="M 72.011719 5.425781 L 72.011719 9.738281 L 73.816406 9.738281 L 73.816406 5.144531 C 73.816406 4.34375 73.59375 3.730469 73.140625 3.296875 C 72.707031 2.875 72.113281 2.667969 71.367188 2.667969 C 70.347656 2.667969 69.355469 3.308594 69.148438 4.410156 L 69.070312 4.410156 L 69.023438 2.804688 L 67.34375 2.804688 L 67.34375 9.734375 L 69.148438 9.734375 L 69.148438 5.851562 C 69.148438 5.308594 69.257812 4.878906 69.570312 4.570312 C 69.878906 4.261719 70.261719 4.109375 70.707031 4.109375 C 71.609375 4.109375 72.011719 4.546875 72.011719 5.425781 Z M 72.011719 5.425781 "/>
<path style=" stroke:none;fill-rule:nonzero;fill:rgb(0%,41.176471%,38.823529%);fill-opacity:1;" d="M 20.054688 20.167969 L 20.996094 20.167969 L 20.996094 20.324219 L 20.605469 20.324219 L 20.605469 21.378906 L 20.441406 21.378906 L 20.441406 20.324219 L 20.054688 20.324219 Z M 22.515625 20.167969 L 22.515625 21.375 L 22.347656 21.375 L 22.347656 20.296875 L 22.25 20.585938 L 21.933594 21.375 L 21.769531 21.375 L 21.453125 20.585938 L 21.355469 20.289062 L 21.355469 21.375 L 21.191406 21.375 L 21.191406 20.167969 L 21.453125 20.167969 L 21.769531 20.96875 L 21.851562 21.199219 L 21.929688 20.96875 L 22.25 20.167969 Z M 22.515625 20.167969 "/>
</g>
</svg>
