<svg width="134" height="14" viewBox="0 0 134 14" fill="none" xmlns="http://www.w3.org/2000/svg"><g clip-path="url(#a)"><path d="m8.8 12.72-1.48.39L4.1 8.22l-1.8-.04.09 4.72L.93 13V1.08l2.82-.1c1.28-.04 2.27.26 2.95.86a3.18 3.18 0 0 1 1.04 2.44c0 .67-.22 1.31-.64 1.96a3.73 3.73 0 0 1-1.8 1.5v.04l3.5 4.94ZM2.35 1.93l-.08 5.44 2.2-.1c.8-.22 1.74-1.2 1.74-2.62 0-1.6-1-2.63-2.64-2.67l-1.22-.05Zm13.28 11.18c-3.17 0-5.66-2.47-5.66-6.16a6.17 6.17 0 0 1 6-6.15c3.19 0 5.68 2.49 5.68 6.18a6.26 6.26 0 0 1-6.02 6.13Zm.22-1c2.5 0 4.23-1.93 4.23-5.02s-2.02-5.3-4.34-5.3c-2.46 0-4.22 1.91-4.22 5.05 0 3.02 2.07 5.28 4.33 5.28Zm12.03.79-1.46.11V7.35l-4.29-6.16L23.7 1l3.62 5.5L31.04 1l1.25.2-4.42 6.22.02 5.49Zm14.27-.02-1.52.16-1.12-3.16-5.49.12L32.91 13l-1.26-.13L36.56.98l.67-.16 4.93 12.06Zm-5.44-9.84-2.27 5.9 4.71.09-2.44-6ZM47.2 12.9l-3.02.1V1.1l1.46-.11-.07 5.04.05 5.95 4.84-.19-.1 1.13-3.16-.02Zm33.5 0-1.46.11V1.98l-4.4.16.1-1.15h4.9l5.13-.12-.11 1.22-4.14-.16-.09 4.38.07 6.59Zm14.03-.02-1.52.16-1.13-3.16-5.48.12L85.48 13l-1.26-.13L89.13.98l.66-.16 4.94 12.06Zm-5.44-9.84-2.27 5.9 4.71.09-2.44-6Zm10.48 9.86-3.02.1V1.1L98.2.99 98.14 6l.04 5.94 4.85-.18-.11 1.13h-3.15Zm7.24 0-1.91.1V1.07l2.73-.1h3.39l-.11 1.16-4.56-.19-.1 4.52 3.95-.12-.24 1.13-3.74-.11.1 4.58 5.07-.16-.1 1.13H107v-.02Zm8.17 0-1.3.11L114 1.1l1.05-.11 7.03 9.21-.14-9.1 1.3-.11-.15 11.9-.48.1-7.58-9.63.15 9.54Zm13.79.11c-.66 0-1.32-.13-1.96-.41a4.85 4.85 0 0 1-1.48-.97l.7-.8c.89.69 1.84 1.22 3.11 1.22 1.41 0 2.38-.67 2.38-1.99 0-.69-.24-1.22-.68-1.54a9.55 9.55 0 0 0-1.8-.97c-1.57-.64-3.24-1.31-3.24-3.5 0-1.75 1.52-3.16 3.59-3.16a5 5 0 0 1 2.86.83l-.26 1.04a7.77 7.77 0 0 0-2.91-.8c-1.08 0-1.98.52-1.98 1.68 0 .73.24 1.26.68 1.59.44.34 1.06.66 1.78.99 1.54.69 3.26 1.24 3.26 3.38.02 2.26-1.94 3.41-4.05 3.41Z" fill="#333"/><path d="M56.87.82v12.15h11.6V.82h-11.6Zm5.8 11.64a5.45 5.45 0 0 1-5.34-5.58 5.45 5.45 0 0 1 5.33-5.57A5.45 5.45 0 0 1 68 6.88a5.45 5.45 0 0 1-5.33 5.58Zm-4.68-4.59c.11.56.64 1.9 1.54 1.57.66-.25.7-.9.84-1.63.11-.7.29-2 .5-2.29.03-.02 0-.04-.01-.04-.53.02-.89 1.27-1.08 1.84-.38 1.13-1.52 1.22-1.72.53 0 0-.07 0-.07.02Zm9.25-1.95c-.13-.3-.22-.42-.35-.7.11-.32.24-.76.22-.94-.09-.78-1.1.05-.88 1.06l.18.67c-.31.64-.45.53-.42.3l.04-.49c.09-.62-.22-.66-.42-.53-.1.07-.26.3-.33.44l.07-.3-.55.23-.18.95c-.22.53-.46.62-.62.6l-.13-.07c.5-.46.69-.86.64-1.13-.04-.3-.26-.3-.42-.26-.4.14-.72.56-.81 1.13-.02.19-.02.37.02.51-.35.58-.37.25-.33.02.11-.53.46-2.72.46-2.72l-.55.24-.46 2.65c-.27.66-.33.41-.29.18l.22-1.22-.53.2-.08.44c-.07-.2-.2-.34-.38-.37-.33-.04-.68.42-.8.97-.1.58.08 1.09.4 1.1.25.03.49-.18.64-.5.1.2.31.19.44.1.14-.1.27-.33.36-.51.04.27.26.27.42.18.24-.14.46-.46.57-.6.09.16.24.26.42.23.24-.02.53-.34.75-.71l-.1.44.56-.23.2-1.06c.26-.67.35-.44.33-.23l-.07.48c-.07.62.2.64.4.53.28-.19.46-.53.61-.85.11.27.25.5.36.85.79 2.33-2.2 2.1-3.4 2.14-1.1.05-1.2 1.04-1.32 1.8 4.1.05 5.95-3.11 5.11-5.02Zm-5.6 1.77c-.01.28-.19.58-.34.58-.16 0-.27-.23-.22-.56.04-.27.17-.53.33-.53.15 0 .26.23.24.51Zm2.17-.74c-.03-.07-.03-.14-.03-.23.03-.27.16-.57.33-.62.07-.02.14 0 .14.12 0 .25-.25.55-.44.73Zm3-1.93c-.03-.03-.03-.05-.03-.07-.33-.83.11-.95.15-.6a2 2 0 0 1-.13.67Zm-3.58-2.38c-.06.53-.1 1.64-1.1 1.8-1.63.28-3.8 1.02-4.16 2.67 0 .03-.07.03-.07.03-.04-2.6 2.18-4.5 5.33-4.5Z" fill="red"/></g><defs><clipPath id="a"><path fill="#fff" transform="translate(.82 .78)" d="M0 0h132.35v12.44H0z"/></clipPath></defs></svg>