<svg xmlns="http://www.w3.org/2000/svg">
  <symbol viewBox="0 0 24 24"  id="icon-search">
    <path d="M13 19a8 8 0 1 1 0-16 8 8 0 0 1 0 16ZM3 21l4.35-4.35"  stroke-width="2" stroke-linecap="round" stroke-linejoin="round"/>
  </symbol>

  <symbol viewBox="0 0 24 24" id="icon-login">
    <path d="M15 3h4a2 2 0 0 1 2 2v14a2 2 0 0 1-2 2h-4M10 17l5-5-5-5M15 12H3"  stroke-width="2" stroke-linecap="round" stroke-linejoin="round"/>
  </symbol>

  <symbol viewBox="0 0 18 18" id="icon-facebook">
    <path d="M12.4 18v-6.97h2.33l.35-2.7H12.4V6.6c0-.79.22-1.32 1.34-1.32h1.44V2.86c-.7-.08-1.4-.11-2.1-.11-2.06 0-3.47 1.26-3.47 3.58v2H7.27v2.7H9.6V18H1a1 1 0 0 1-1-1V1a1 1 0 0 1 1-1h16a1 1 0 0 1 1 1v16a1 1 0 0 1-1 1h-4.6Z" />
  </symbol>

  <symbol viewBox="0 0 22 18" id="icon-twitter">
    <path d="M21.16 2.66c-.76.33-1.57.56-2.4.65A4.2 4.2 0 0 0 20.6 1c-.82.49-1.72.83-2.66 1.01a4.18 4.18 0 0 0-7.12 3.82A11.87 11.87 0 0 1 2.2 1.46a4.17 4.17 0 0 0 1.3 5.58 4.17 4.17 0 0 1-1.9-.52v.05a4.19 4.19 0 0 0 3.35 4.1 4.2 4.2 0 0 1-1.89.07 4.18 4.18 0 0 0 3.91 2.91 8.4 8.4 0 0 1-6.2 1.73 11.83 11.83 0 0 0 6.42 1.88c7.7 0 11.9-6.37 11.9-11.9l-.01-.54a8.5 8.5 0 0 0 2.08-2.16Z"/>
  </symbol>

  <symbol viewBox="0 0 20 20" id="icon-instagram">
    <path d="M10 0c2.72 0 3.06.01 4.12.06 1.07.05 1.8.22 2.43.47.66.25 1.22.6 1.77 1.15.51.5.9 1.1 1.16 1.77.24.64.41 1.36.46 2.43.05 1.06.06 1.4.06 4.12s-.01 3.06-.06 4.12a7.4 7.4 0 0 1-.46 2.43 4.88 4.88 0 0 1-1.16 1.77c-.5.51-1.1.9-1.77 1.16-.64.24-1.36.41-2.43.46-1.06.05-1.4.06-4.12.06s-3.06-.01-4.12-.06a7.4 7.4 0 0 1-2.43-.46 4.89 4.89 0 0 1-1.77-1.16c-.51-.5-.9-1.1-1.16-1.77a7.36 7.36 0 0 1-.46-2.43C.01 13.06 0 12.72 0 10s.01-3.06.06-4.12c.05-1.07.22-1.8.47-2.43.25-.67.64-1.27 1.15-1.77.5-.51 1.1-.9 1.77-1.16A7.36 7.36 0 0 1 5.88.06C6.94.01 7.28 0 10 0Zm0 5a5 5 0 1 0 0 10 5 5 0 0 0 0-10Zm6.5-.25a1.25 1.25 0 1 0-2.5 0 1.25 1.25 0 0 0 2.5 0ZM10 7a3 3 0 1 1 0 6 3 3 0 0 1 0-6Z" />
  </symbol>

  <symbol viewBox="0 0 20 16" id="icon-youtube">
    <path d="M19.54 2.5C20 4.28 20 8 20 8s0 3.72-.46 5.5c-.25.99-1 1.76-1.93 2.02C15.9 16 10 16 10 16s-5.9 0-7.6-.48A2.81 2.81 0 0 1 .45 13.5C0 11.72 0 8 0 8s0-3.72.46-5.5C.7 1.5 1.46.74 2.4.48 4.1 0 10 0 10 0s5.9 0 7.6.48a2.81 2.81 0 0 1 1.94 2.02ZM8 11.5 14 8 8 4.5v7Z" />
  </symbol>
</svg>
