<svg width="105" height="32" viewBox="0 0 105 32" fill="none" xmlns="http://www.w3.org/2000/svg"><path fill-rule="evenodd" clip-rule="evenodd" d="M21.32 4.44c1.8 1.13 4.02 4.17 4.8 6.43.9 2.52.04 4.99-2.09 6.81-3.48 2.96-5.7 5-7.33 6.86-1.27 1.48-2.85 3.34-2.72 7.16-3.34-3.86-3.98-9.8-.36-13.67a92.86 92.86 0 0 0 6.07-6.86c1.35-1.73 1.85-4.2 1.63-6.73ZM6.18 23.4c-9.4-8-6.84-19.14 6.93-22.3 1.46-.36 2.1-.5 2.84-.8.78 1.55.87 2.76-1.06 4.05C10.08 7.5 2.8 11.83 6.18 23.4Z" fill="#558EC0"/><path fill-rule="evenodd" clip-rule="evenodd" d="M40.54 25.38a5 5 0 0 1-2.31.4c-4.57 0-8.23-3.46-8.23-7.7 0-4.25 3.7-7.71 8.23-7.71.77 0 1.54.09 2.36.35v3.8a4.66 4.66 0 0 0-2.36-.56c-2.5 0-4.52 1.84-4.52 4.11 0 2.28 2.02 4.12 4.52 4.12 1.06 0 1.59-.18 2.26-.53l.05 3.72ZM92.35 18.07c0 4.25-3.57 7.7-7.94 7.7a7.81 7.81 0 0 1-7.94-7.7c0-4.24 3.58-7.7 7.94-7.7a7.84 7.84 0 0 1 7.94 7.7Zm-7.98-4.11c-2.42 0-4.37 1.84-4.37 4.11 0 2.28 1.95 4.12 4.37 4.12 2.41 0 4.36-1.84 4.36-4.12 0-2.27-1.95-4.11-4.36-4.11ZM58.76 25.73H54.7v-9.41a6.14 6.14 0 0 1 6.17-5.95c3.43 0 6.18 2.8 6.18 5.95v9.46H63v-9.46a2.1 2.1 0 0 0-2.18-2.22c-1.2 0-2.17.98-2.17 2.22l.1 9.41ZM97.39 25.73h-3.86v-9.41a6 6 0 0 1 5.88-5.95 6 6 0 0 1 5.88 5.95v9.46h-3.86v-9.46c0-1.33-.92-2.22-2.06-2.22-1.15 0-2.07.98-2.07 2.22l.09 9.41ZM45.62 21.74v4h-3.86v-9.42a6 6 0 0 1 5.89-5.95 6 6 0 0 1 5.88 5.95v9.46h-3.86v-4.09h-4.05v.05Zm4.1-3.51v-1.87c0-1.33-.92-2.22-2.07-2.22-1.06 0-2.07.98-2.07 2.22v1.91h4.14v-.04ZM73.64 16.04l1.22 2.16c2.1 3.58-.05 8.6-6.62 7.4v-3.55c2.7.99 4.2-.4 3.03-2.6 0 0-.84-1.48-1.5-2.6-1.58-2.69.42-7.26 6.11-6.37v3.64c-1.44-1.03-3.36 0-2.24 1.92Z" fill="#053D5B"/></svg>