<svg width="124" height="16" viewBox="0 0 124 16" fill="none" xmlns="http://www.w3.org/2000/svg"><g clip-path="url(#a)" fill-rule="evenodd" clip-rule="evenodd"><path d="M74.7 15.36h-1.33V.04h1.33v15.32ZM106.25.04v12.84L94.4.04V0h-1.37v15.36h1.37V2.4l11.86 12.97v-.04.04h1.38V.04h-1.38Zm-16.24 0V.1L75.94 15.32h2.04L90 1.94v8.87h-5.93v1.4h5.93v3.1h1.33V.05h-1.33ZM67.7 8.38h.1c2.21 0 4.02-2.03 4.02-4.28A4.02 4.02 0 0 0 68.06.04V0H56.96v15.36h1.37V1.4h9.64a2.7 2.7 0 0 1 2.35 2.7c0 1.44-1.1 2.84-2.57 2.93H65.9v1.53h.05l3.94 6.76h2.17L67.7 8.38ZM48.2 0l-7.4.04v15.32h11.11a4.07 4.07 0 0 0 3.76-4.1c0-1.48-.75-2.75-1.9-3.47a4.44 4.44 0 0 0 1.9-3.7A4.02 4.02 0 0 0 51.95.05V0H48.2Zm0 13.96h-6.03V1.4h9.7a2.7 2.7 0 0 1 2.34 2.7c0 1.49-1.2 2.88-2.66 2.93v1.53a2.69 2.69 0 0 1 2.66 2.7c0 1.4-1.06 2.52-2.39 2.7H48.2Z" fill="#000"/><path d="M.53 0v15.32H1.9L13.94 2.3v8.51H8.1v1.4h5.84v3.1h1.33V0H.53ZM1.9 13.24V8.02h4.87L1.9 13.24Zm0-6.62V1.4h11.06L8.1 6.62H1.9Z" fill="#00ACEC"/><path d="M115.95 0a7.62 7.62 0 0 0-7.57 7.66c0 4.23 3.4 7.7 7.57 7.7a7.62 7.62 0 0 0 7.52-7.7A7.59 7.59 0 0 0 115.95 0Zm0 13.74a5.94 5.94 0 0 1-5.89-6c0-3.32 2.61-5.98 5.89-5.98a5.94 5.94 0 0 1 5.88 5.99c0 3.29-2.65 5.99-5.88 5.99ZM35.1 1.49V.09H20.26v15.27h1.33V8.33h8.73l-6.43 6.99h2.03l12-13.38v8.87h-5.9v1.4h5.9l.08 3.2h1.38L39.29.04h-1.36V.1l-6.31 6.85H21.6V1.49h13.5Z" fill="#000"/></g><defs><clipPath id="a"><path fill="#fff" transform="translate(.53)" d="M0 0h122.94v15.41H0z"/></clipPath></defs></svg>